<mxfile host="app.diagrams.net" modified="2023-10-31T14:36:28.710Z" agent="Mozilla/5.0 (Windows NT 10.0; Win64; x64; rv:109.0) Gecko/20100101 Firefox/119.0" etag="3NcxG0XdUQ08gKC3AKm4" version="22.0.8" type="device">
  <diagram name="Seite-1" id="XE3J6MwuaCHnsHoTBa3w">
    <mxGraphModel dx="1500" dy="809" grid="1" gridSize="10" guides="1" tooltips="1" connect="1" arrows="1" fold="1" page="1" pageScale="1" pageWidth="827" pageHeight="1169" math="0" shadow="0">
      <root>
        <mxCell id="0" />
        <mxCell id="1" parent="0" />
        <mxCell id="OURwhKMCkHObsWXmyVqX-9" value="Fahrkartenautomat" style="rounded=0;whiteSpace=wrap;html=1;verticalAlign=top;" vertex="1" parent="1">
          <mxGeometry x="120" y="80" width="280" height="360" as="geometry" />
        </mxCell>
        <mxCell id="OURwhKMCkHObsWXmyVqX-1" value="&lt;b&gt;Fahrkarte&lt;br&gt;kaufen&lt;/b&gt;" style="ellipse;whiteSpace=wrap;html=1;" vertex="1" parent="1">
          <mxGeometry x="150" y="130" width="120" height="80" as="geometry" />
        </mxCell>
        <mxCell id="OURwhKMCkHObsWXmyVqX-2" value="&lt;b&gt;Kunde&lt;/b&gt;" style="shape=umlActor;verticalLabelPosition=bottom;verticalAlign=top;html=1;outlineConnect=0;" vertex="1" parent="1">
          <mxGeometry x="50" y="120" width="30" height="60" as="geometry" />
        </mxCell>
        <mxCell id="OURwhKMCkHObsWXmyVqX-3" value="&lt;b&gt;Wartungs-&lt;br&gt;techniker&lt;/b&gt;" style="shape=umlActor;verticalLabelPosition=bottom;verticalAlign=top;html=1;outlineConnect=0;" vertex="1" parent="1">
          <mxGeometry x="440" y="220" width="30" height="60" as="geometry" />
        </mxCell>
        <mxCell id="OURwhKMCkHObsWXmyVqX-4" value="&lt;b&gt;Automat&lt;br&gt;warten&lt;br&gt;&lt;/b&gt;" style="ellipse;whiteSpace=wrap;html=1;" vertex="1" parent="1">
          <mxGeometry x="250" y="230" width="120" height="80" as="geometry" />
        </mxCell>
        <mxCell id="OURwhKMCkHObsWXmyVqX-5" value="&lt;b&gt;GeldbehÃ¤lter&lt;br&gt;leeren&lt;br&gt;&lt;/b&gt;" style="ellipse;whiteSpace=wrap;html=1;" vertex="1" parent="1">
          <mxGeometry x="250" y="330" width="120" height="80" as="geometry" />
        </mxCell>
        <mxCell id="OURwhKMCkHObsWXmyVqX-6" value="" style="endArrow=none;html=1;rounded=0;" edge="1" parent="1" source="OURwhKMCkHObsWXmyVqX-2" target="OURwhKMCkHObsWXmyVqX-1">
          <mxGeometry width="50" height="50" relative="1" as="geometry">
            <mxPoint x="390" y="320" as="sourcePoint" />
            <mxPoint x="440" y="270" as="targetPoint" />
          </mxGeometry>
        </mxCell>
        <mxCell id="OURwhKMCkHObsWXmyVqX-7" value="" style="endArrow=none;html=1;rounded=0;" edge="1" parent="1" source="OURwhKMCkHObsWXmyVqX-3" target="OURwhKMCkHObsWXmyVqX-4">
          <mxGeometry width="50" height="50" relative="1" as="geometry">
            <mxPoint x="390" y="320" as="sourcePoint" />
            <mxPoint x="440" y="270" as="targetPoint" />
          </mxGeometry>
        </mxCell>
        <mxCell id="OURwhKMCkHObsWXmyVqX-8" value="" style="endArrow=none;html=1;rounded=0;" edge="1" parent="1" source="OURwhKMCkHObsWXmyVqX-3" target="OURwhKMCkHObsWXmyVqX-5">
          <mxGeometry width="50" height="50" relative="1" as="geometry">
            <mxPoint x="390" y="320" as="sourcePoint" />
            <mxPoint x="440" y="270" as="targetPoint" />
          </mxGeometry>
        </mxCell>
        <mxCell id="OURwhKMCkHObsWXmyVqX-10" value="Akteur" style="text;html=1;strokeColor=none;fillColor=none;align=center;verticalAlign=middle;whiteSpace=wrap;rounded=0;fontColor=#006666;" vertex="1" parent="1">
          <mxGeometry x="10" y="40" width="60" height="30" as="geometry" />
        </mxCell>
        <mxCell id="OURwhKMCkHObsWXmyVqX-11" value="" style="endArrow=openThin;html=1;rounded=0;strokeColor=#006666;endFill=0;" edge="1" parent="1" source="OURwhKMCkHObsWXmyVqX-10">
          <mxGeometry width="50" height="50" relative="1" as="geometry">
            <mxPoint x="431" y="397" as="sourcePoint" />
            <mxPoint x="60" y="110" as="targetPoint" />
          </mxGeometry>
        </mxCell>
        <mxCell id="OURwhKMCkHObsWXmyVqX-12" value="Akteur" style="text;html=1;strokeColor=none;fillColor=none;align=center;verticalAlign=middle;whiteSpace=wrap;rounded=0;fontColor=#006666;" vertex="1" parent="1">
          <mxGeometry x="450" y="130" width="60" height="30" as="geometry" />
        </mxCell>
        <mxCell id="OURwhKMCkHObsWXmyVqX-13" value="" style="endArrow=openThin;html=1;rounded=0;strokeColor=#006666;endFill=0;" edge="1" parent="1" source="OURwhKMCkHObsWXmyVqX-12">
          <mxGeometry width="50" height="50" relative="1" as="geometry">
            <mxPoint x="891" y="407" as="sourcePoint" />
            <mxPoint x="460" y="210" as="targetPoint" />
          </mxGeometry>
        </mxCell>
        <mxCell id="OURwhKMCkHObsWXmyVqX-14" value="Name des Systems" style="text;html=1;strokeColor=none;fillColor=none;align=center;verticalAlign=middle;whiteSpace=wrap;rounded=0;fontColor=#006666;" vertex="1" parent="1">
          <mxGeometry x="200" y="12" width="120" height="28" as="geometry" />
        </mxCell>
        <mxCell id="OURwhKMCkHObsWXmyVqX-15" value="" style="endArrow=openThin;html=1;rounded=0;strokeColor=#006666;endFill=0;" edge="1" parent="1" source="OURwhKMCkHObsWXmyVqX-14">
          <mxGeometry width="50" height="50" relative="1" as="geometry">
            <mxPoint x="172.35849056603774" y="72.5" as="sourcePoint" />
            <mxPoint x="260" y="89" as="targetPoint" />
          </mxGeometry>
        </mxCell>
        <mxCell id="OURwhKMCkHObsWXmyVqX-16" value="Anwendungs-&lt;br&gt;fall" style="text;html=1;strokeColor=none;fillColor=none;align=center;verticalAlign=middle;whiteSpace=wrap;rounded=0;fontColor=#006666;" vertex="1" parent="1">
          <mxGeometry x="125" y="260" width="90" height="30" as="geometry" />
        </mxCell>
        <mxCell id="OURwhKMCkHObsWXmyVqX-17" value="" style="endArrow=openThin;html=1;rounded=0;strokeColor=#006666;endFill=0;" edge="1" parent="1" source="OURwhKMCkHObsWXmyVqX-16" target="OURwhKMCkHObsWXmyVqX-1">
          <mxGeometry width="50" height="50" relative="1" as="geometry">
            <mxPoint x="441" y="592" as="sourcePoint" />
            <mxPoint x="70" y="305" as="targetPoint" />
          </mxGeometry>
        </mxCell>
        <mxCell id="OURwhKMCkHObsWXmyVqX-18" value="" style="endArrow=openThin;html=1;rounded=0;strokeColor=#006666;endFill=0;" edge="1" parent="1" source="OURwhKMCkHObsWXmyVqX-16" target="OURwhKMCkHObsWXmyVqX-4">
          <mxGeometry width="50" height="50" relative="1" as="geometry">
            <mxPoint x="180" y="290" as="sourcePoint" />
            <mxPoint x="212" y="218" as="targetPoint" />
          </mxGeometry>
        </mxCell>
        <mxCell id="OURwhKMCkHObsWXmyVqX-19" value="" style="endArrow=openThin;html=1;rounded=0;strokeColor=#006666;endFill=0;" edge="1" parent="1" source="OURwhKMCkHObsWXmyVqX-16" target="OURwhKMCkHObsWXmyVqX-5">
          <mxGeometry width="50" height="50" relative="1" as="geometry">
            <mxPoint x="192" y="290" as="sourcePoint" />
            <mxPoint x="222" y="228" as="targetPoint" />
          </mxGeometry>
        </mxCell>
        <mxCell id="OURwhKMCkHObsWXmyVqX-23" value="Systemgrenze" style="text;html=1;strokeColor=none;fillColor=none;align=center;verticalAlign=middle;whiteSpace=wrap;rounded=0;fontColor=#006666;" vertex="1" parent="1">
          <mxGeometry x="210" y="480" width="100" height="30" as="geometry" />
        </mxCell>
        <mxCell id="OURwhKMCkHObsWXmyVqX-24" value="" style="endArrow=openThin;html=1;rounded=0;strokeColor=#006666;endFill=0;entryX=0.5;entryY=1;entryDx=0;entryDy=0;" edge="1" parent="1" source="OURwhKMCkHObsWXmyVqX-23" target="OURwhKMCkHObsWXmyVqX-9">
          <mxGeometry width="50" height="50" relative="1" as="geometry">
            <mxPoint x="571" y="837" as="sourcePoint" />
            <mxPoint x="200" y="550" as="targetPoint" />
          </mxGeometry>
        </mxCell>
      </root>
    </mxGraphModel>
  </diagram>
</mxfile>
